<?xml version="1.0" encoding="utf-8"?>
<!-- Generator: Adobe Illustrator 19.1.0, SVG Export Plug-In . SVG Version: 6.00 Build 0)  -->
<!DOCTYPE svg PUBLIC "-//W3C//DTD SVG 1.1//EN" "http://www.w3.org/Graphics/SVG/1.1/DTD/svg11.dtd">
<svg version="1.1" id="Layer_1" xmlns="http://www.w3.org/2000/svg" xmlns:xlink="http://www.w3.org/1999/xlink" x="0px" y="0px"
	 viewBox="0 0 72 72" enable-background="new 0 0 72 72" xml:space="preserve">
<g>
	<path fill="#4F4F4F" d="M72,67.8c0,2.3-1.9,4.2-4.2,4.2H4.2C1.9,72,0,70.1,0,67.8V4.2C0,1.9,1.9,0,4.2,0h63.5C70.1,0,72,1.9,72,4.2
		V67.8z"/>
	<path fill="#FFFFFF" d="M47.6,18.3H24.4c-3.6,0-6.6,2.9-6.6,6.4v22.6c0,3.5,3,6.4,6.6,6.4h23.2c3.6,0,6.6-2.9,6.6-6.4V24.7
		C54.2,21.2,51.2,18.3,47.6,18.3 M43.3,23.3c0-0.8,0.6-1.4,1.5-1.4c1.4,0,2.9,0,4.3,0c0.7,0,1.3,0.5,1.5,1.2c0,0.1,0,0.1,0,0.2
		c0,1.4,0,2.8,0,4.1c0,0.7-0.5,1.3-1.2,1.4c-0.1,0-0.2,0-0.3,0c-0.7,0-1.4,0-2.2,0c-0.7,0-1.4,0-2.2,0c-0.6,0-1.4-0.4-1.5-1.2
		c0-0.1,0-0.1,0-0.2C43.3,26,43.3,24.6,43.3,23.3 M36,28.8c4,0,7.3,3.1,7.3,6.9c0,3.8-3.3,6.9-7.3,6.9c-4,0-7.3-3.1-7.3-6.9
		C28.7,32,31.9,28.8,36,28.8 M50.6,33.2v12.3c0,0.9,0,1.8,0,2.7c0,0.7-0.5,1.2-1.2,1.4c-0.1,0-0.3,0-0.4,0c-4.2,0-8.4,0-12.6,0
		c-4.5,0-9,0-13.5,0c-0.2,0-0.4,0-0.6-0.1c-0.6-0.2-1-0.6-1-1.2c0-0.1,0-0.1,0-0.2v-15V33h3.3c-0.7,2.9-0.4,5.6,1.1,8.2
		c1.1,1.8,2.6,3.3,4.6,4.3c1.9,1,4,1.5,6.2,1.4c3.7-0.2,6.6-1.7,8.9-4.5c2.1-2.8,2.8-6,1.9-9.4h3.3V33.2z"/>
</g>
</svg>
