<?xml version="1.0" encoding="utf-8"?>
<!-- Generator: Adobe Illustrator 19.1.0, SVG Export Plug-In . SVG Version: 6.00 Build 0)  -->
<!DOCTYPE svg PUBLIC "-//W3C//DTD SVG 1.1//EN" "http://www.w3.org/Graphics/SVG/1.1/DTD/svg11.dtd">
<svg version="1.1" id="Layer_1" xmlns="http://www.w3.org/2000/svg" xmlns:xlink="http://www.w3.org/1999/xlink" x="0px" y="0px"
	 viewBox="0 0 72 72" enable-background="new 0 0 72 72" xml:space="preserve">
<g>
	<path fill="#4F4F4F" d="M72,67.8c0,2.3-1.9,4.2-4.2,4.2H4.2C1.9,72,0,70.1,0,67.8V4.2C0,1.9,1.9,0,4.2,0h63.5C70.1,0,72,1.9,72,4.2
		V67.8z"/>
	<path fill="#FFFFFF" d="M26.7,51.3h-6.5V30.5h6.5V51.3z M23.2,27.9L23.2,27.9c-2.4,0-3.9-1.6-3.9-3.6c0-2.1,1.6-3.6,4-3.6
		c2.4,0,3.9,1.6,3.9,3.6C27.2,26.3,25.7,27.9,23.2,27.9 M52.7,51.3h-7.4V40.6c0-2.8-1.2-4.7-3.7-4.7c-1.9,0-3,1.3-3.5,2.6
		c-0.2,0.4-0.2,1.1-0.2,1.7v11.3h-7.3c0,0,0.1-19.1,0-20.8h7.3v3.3c0.4-1.4,2.8-3.5,6.5-3.5c4.6,0,8.3,3,8.3,9.4V51.3z"/>
</g>
</svg>
