<?xml version="1.0" encoding="utf-8"?>
<!-- Generator: Adobe Illustrator 19.1.0, SVG Export Plug-In . SVG Version: 6.00 Build 0)  -->
<!DOCTYPE svg PUBLIC "-//W3C//DTD SVG 1.1//EN" "http://www.w3.org/Graphics/SVG/1.1/DTD/svg11.dtd">
<svg version="1.1" id="Layer_1" xmlns="http://www.w3.org/2000/svg" xmlns:xlink="http://www.w3.org/1999/xlink" x="0px" y="0px"
	 viewBox="0 0 72 72" enable-background="new 0 0 72 72" xml:space="preserve">
<g>
	<path fill="#4F4F4F" d="M71.9,67.8c0,2.3-1.9,4.2-4.2,4.2H4.1c-2.3,0-4.2-1.9-4.2-4.2V4.2C-0.1,1.9,1.8,0,4.1,0h63.5
		c2.3,0,4.2,1.9,4.2,4.2V67.8z"/>
	<path fill="#FFFFFF" d="M51.6,49.4H19.5c-2,0-3.6-1.6-3.6-3.6V26.3c0-2,1.6-3.6,3.6-3.6h32.2c2,0,3.6,1.6,3.6,3.6v19.5
		C55.3,47.8,53.6,49.4,51.6,49.4z"/>
	<polyline fill="none" stroke="#4F4F4F" stroke-width="2" stroke-miterlimit="10" points="55.7,24.7 35.4,38.4 15.1,24.7 	"/>
	<polyline fill="none" stroke="#4F4F4F" stroke-width="2" stroke-miterlimit="10" points="16.3,48.9 32,36.1 35.4,38.4 38.9,36.1 
		54.8,48.9 	"/>
</g>
</svg>
