<?xml version="1.0" encoding="utf-8"?>
<!-- Generator: Adobe Illustrator 19.1.0, SVG Export Plug-In . SVG Version: 6.00 Build 0)  -->
<!DOCTYPE svg PUBLIC "-//W3C//DTD SVG 1.1//EN" "http://www.w3.org/Graphics/SVG/1.1/DTD/svg11.dtd">
<svg version="1.1" id="Layer_1" xmlns="http://www.w3.org/2000/svg" xmlns:xlink="http://www.w3.org/1999/xlink" x="0px" y="0px"
	 viewBox="0 0 72 72" enable-background="new 0 0 72 72" xml:space="preserve">
<g>
	<path fill="#4F4F4F" d="M72,67.8c0,2.3-1.9,4.2-4.2,4.2H4.2C1.9,72,0,70.1,0,67.8V4.2C0,1.9,1.9,0,4.2,0h63.5C70.1,0,72,1.9,72,4.2
		V67.8z"/>
	<path fill="#FFFFFF" d="M32.9,27.4c0,0,1-0.7,0.2-1.8c-0.8-1.1-5.3-6.6-5.3-6.6s-0.6-1.2-1.9-0.4l-2.3,1.9l7,8.8L32.9,27.4z"/>
	<path fill="#FFFFFF" d="M28.9,30.7l-7-8.8c0,0-4.2,4,0.9,14c0,0,2.9,5.9,8.9,11.7c0,0,8.6,8.4,14.6,5l-6.8-8.6c0,0-0.8,0.8-2.1-0.1
		s-8-7.7-8.9-11.3C28.4,32.5,27.9,31.6,28.9,30.7z"/>
	<path fill="#FFFFFF" d="M50.3,49.3c0,0,1-0.7,0.2-1.8s-5.3-6.6-5.3-6.6s-0.6-1.2-1.9-0.4l-2.3,1.9l7,8.8L50.3,49.3z"/>
</g>
</svg>
