<?xml version="1.0" encoding="utf-8"?>
<!-- Generator: Adobe Illustrator 19.1.0, SVG Export Plug-In . SVG Version: 6.00 Build 0)  -->
<!DOCTYPE svg PUBLIC "-//W3C//DTD SVG 1.1//EN" "http://www.w3.org/Graphics/SVG/1.1/DTD/svg11.dtd">
<svg version="1.1" id="Layer_1" xmlns="http://www.w3.org/2000/svg" xmlns:xlink="http://www.w3.org/1999/xlink" x="0px" y="0px"
	 viewBox="0 0 72 72" enable-background="new 0 0 72 72" xml:space="preserve">
<g>
	<path fill="#585859" d="M72,67.8c0,2.3-1.9,4.2-4.2,4.2H4.2C1.9,72,0,70.1,0,67.8V4.2C0,1.9,1.9,0,4.2,0h63.5C70.1,0,72,1.9,72,4.2
		V67.8z"/>
	<path fill="#FFFFFF" d="M50.9,27.7c-0.1,2.9-2.2,6.9-6.1,11.9c-4.1,5.3-7.5,7.9-10.3,7.9c-1.7,0-3.2-1.6-4.4-4.8
		c-0.8-2.9-1.6-5.9-2.4-8.8c-0.9-3.2-1.9-4.8-2.9-4.8c-0.2,0-1,0.5-2.3,1.4l-1.4-1.8c1.5-1.3,2.9-2.6,4.4-3.9c2-1.7,3.4-2.6,4.4-2.7
		c2.3-0.2,3.7,1.4,4.3,4.8c0.6,3.7,1,5.9,1.2,6.8c0.7,3,1.4,4.5,2.2,4.5c0.6,0,1.6-1,2.8-2.9c1.3-2,1.9-3.5,2-4.5
		c0.2-1.7-0.5-2.5-2-2.5c-0.7,0-1.5,0.2-2.2,0.5c1.5-4.8,4.3-7.1,8.4-7C49.7,21.9,51.1,23.9,50.9,27.7"/>
</g>
</svg>
